<?xml version="1.0" standalone="no"?>
<!DOCTYPE svg PUBLIC "-//W3C//DTD SVG 20010904//EN"
 "http://www.w3.org/TR/2001/REC-SVG-20010904/DTD/svg10.dtd">
<svg version="1.0" xmlns="http://www.w3.org/2000/svg"
 width="1024.000000pt" height="1024.000000pt" viewBox="0 0 1024.000000 1024.000000"
 preserveAspectRatio="xMidYMid meet">
<metadata>
</metadata>
<g transform="translate(0.000000,1024.000000) scale(0.100000,-0.100000)"
fill="#000000" stroke="none">
<path d="M0 5120 l0 -5120 5120 0 5120 0 0 5120 0 5120 -5120 0 -5120 0 0
-5120z m5195 5010 c3 -6 6 -71 6 -145 l-1 -135 95 0 95 0 0 -45 0 -45 -95 0
-95 0 0 -50 0 -50 -44 0 -44 0 -7 95 -7 95 -44 0 -43 0 -3 48 -3 47 -40 0
c-47 -1 -55 7 -55 58 l0 37 95 0 95 0 0 43 c0 24 3 47 7 50 10 11 81 8 88 -3z
m195 -140 l0 -50 51 0 c43 0 50 -3 45 -16 -3 -9 -6 -29 -6 -45 0 -29 -1 -30
-41 -27 -40 3 -42 4 -44 41 -2 46 -4 47 -53 54 -38 5 -40 7 -44 45 -2 21 -2
41 1 44 2 2 24 4 48 4 l43 0 0 -50z m-480 -95 l0 -45 -45 0 -45 0 0 45 0 45
45 0 45 0 0 -45z m-3230 -500 c0 -5 -14 -32 -30 -60 -16 -27 -30 -52 -30 -55
0 -3 25 -19 55 -35 30 -17 55 -34 55 -39 0 -5 -27 -56 -60 -113 -33 -58 -60
-109 -60 -114 0 -5 22 -21 50 -37 27 -15 50 -31 50 -36 0 -5 -27 -55 -60 -112
-33 -56 -60 -107 -60 -113 0 -6 25 -25 55 -42 30 -17 55 -33 55 -35 0 -2 -14
-26 -31 -54 -17 -27 -28 -54 -25 -59 7 -10 94 -61 106 -61 4 0 15 19 26 41 30
67 39 72 82 45 83 -52 79 -52 108 6 15 29 31 56 36 59 9 5 318 -167 341 -190
5 -5 -5 -30 -22 -58 -17 -28 -31 -54 -31 -59 0 -5 24 -22 53 -38 28 -16 54
-30 56 -32 2 -2 -11 -29 -29 -60 -35 -62 -36 -58 32 -94 20 -11 39 -23 42 -28
2 -4 -38 -82 -91 -173 -52 -90 -97 -169 -100 -175 -2 -6 21 -24 51 -40 31 -16
56 -35 56 -42 0 -7 -12 -31 -26 -53 -14 -23 -23 -47 -20 -54 3 -8 23 -23 45
-34 22 -12 43 -26 46 -31 4 -6 -21 -59 -54 -117 -34 -59 -60 -112 -57 -119 3
-7 22 -22 43 -33 68 -36 67 -33 34 -90 -17 -28 -31 -56 -31 -61 0 -6 22 -22
50 -38 27 -15 50 -31 50 -36 0 -5 -13 -32 -30 -61 l-30 -52 48 -26 c80 -45 77
-39 42 -96 -18 -28 -30 -57 -27 -64 2 -7 52 -39 110 -72 59 -33 107 -64 107
-69 0 -5 -13 -31 -30 -58 -16 -26 -30 -50 -30 -51 0 -1 25 -16 55 -32 30 -17
55 -33 55 -37 0 -4 -13 -30 -30 -56 -16 -27 -30 -53 -30 -58 0 -5 25 -22 55
-39 30 -16 55 -33 55 -37 0 -4 -14 -30 -31 -58 -17 -28 -30 -52 -28 -54 2 -2
54 -31 114 -66 61 -35 112 -65 114 -66 2 -2 -11 -27 -28 -57 -17 -30 -31 -58
-31 -63 0 -5 23 -21 50 -36 48 -27 59 -44 42 -63 -5 -6 -19 -26 -31 -46 l-21
-37 57 -32 c32 -18 60 -34 61 -36 6 -4 -62 -114 -70 -114 -3 0 -83 45 -177 99
l-171 99 -36 -59 c-19 -33 -39 -58 -42 -56 -20 11 -282 163 -309 179 l-32 19
-32 -55 c-17 -31 -34 -56 -37 -56 -4 0 -32 15 -62 33 -30 18 -81 48 -112 65
l-57 33 -27 -48 c-44 -77 -39 -75 -99 -40 -30 18 -55 36 -55 41 0 5 14 31 30
58 17 27 28 53 25 57 -2 5 -54 37 -115 72 l-110 63 30 53 c17 30 28 58 25 63
-3 4 -55 36 -115 70 -122 69 -117 57 -63 143 l23 37 -47 30 c-26 17 -51 30
-55 30 -14 0 -9 18 22 70 17 28 30 54 30 58 0 4 -46 33 -103 64 -56 32 -108
62 -115 66 -11 7 -7 20 17 57 17 27 31 54 31 59 0 6 -25 24 -55 41 -30 16 -55
31 -55 33 0 3 14 29 31 58 17 30 28 58 24 63 -3 6 -28 22 -55 37 l-49 27 30
52 c16 28 29 56 29 61 0 5 -25 22 -55 39 -30 16 -55 31 -55 32 0 2 14 28 31
58 17 30 28 59 25 64 -3 5 -52 35 -108 66 -57 32 -105 60 -108 62 -2 2 8 28
24 58 15 30 25 59 21 65 -3 5 -24 19 -45 30 -21 11 -41 24 -45 30 -3 6 7 34
24 64 17 29 31 55 31 58 0 2 -25 17 -55 33 -30 17 -55 34 -55 39 0 5 27 55 60
112 33 56 60 107 60 113 0 6 -22 23 -50 39 -27 15 -50 31 -50 36 0 5 27 55 60
112 33 56 60 107 60 113 0 6 -22 23 -50 39 -27 15 -50 33 -50 41 0 8 43 88 95
178 l94 163 -47 30 c-26 16 -51 31 -57 33 -10 4 239 447 258 459 6 4 35 -7 64
-23 l52 -30 15 23 c8 13 35 61 61 108 25 47 50 89 55 94 5 5 30 -5 59 -23 28
-17 56 -31 61 -31 5 0 21 22 35 49 13 27 30 51 37 54 16 5 108 -44 108 -58z
m7026 10 c16 -30 33 -55 38 -55 5 0 31 14 58 30 27 17 53 28 58 25 6 -3 37
-55 71 -115 33 -61 63 -110 65 -110 2 0 26 14 52 30 27 17 53 30 58 30 9 -1
256 -430 262 -455 2 -7 -19 -25 -47 -41 -28 -15 -51 -31 -51 -36 0 -5 41 -79
91 -164 49 -85 93 -161 95 -169 4 -9 -14 -25 -51 -46 -36 -20 -54 -36 -51 -45
3 -8 30 -57 61 -110 30 -52 55 -101 55 -108 0 -7 -23 -25 -51 -40 -58 -32 -59
-23 16 -152 30 -51 55 -99 55 -107 0 -7 -19 -24 -42 -37 -71 -38 -70 -36 -37
-89 16 -27 29 -54 29 -62 0 -8 -23 -27 -50 -42 -28 -16 -50 -31 -50 -34 0 -3
14 -29 30 -59 l31 -53 -73 -42 c-40 -23 -92 -53 -115 -66 -24 -14 -43 -27 -43
-29 0 -1 14 -26 30 -54 17 -28 30 -55 30 -59 0 -5 -25 -23 -55 -40 -30 -17
-55 -33 -55 -36 0 -2 14 -27 30 -55 17 -28 30 -53 30 -55 0 -2 -25 -18 -55
-35 -30 -17 -55 -33 -55 -36 0 -2 14 -26 30 -52 17 -27 30 -54 30 -60 0 -5
-25 -24 -56 -42 l-55 -31 30 -54 c17 -30 31 -57 31 -59 0 -2 -19 -15 -42 -29
-24 -13 -76 -43 -116 -66 l-73 -42 31 -53 c16 -30 30 -58 30 -63 0 -5 -22 -22
-50 -37 -27 -15 -50 -31 -50 -36 0 -5 14 -32 30 -60 17 -28 30 -53 30 -55 0
-2 -52 -34 -115 -70 l-115 -67 30 -53 c16 -29 30 -55 30 -58 0 -3 -51 -35
-114 -72 l-115 -66 34 -57 c38 -64 38 -63 -37 -105 l-46 -27 -32 58 c-18 31
-33 58 -35 60 -1 1 -53 -27 -115 -62 -63 -36 -117 -63 -122 -60 -5 3 -21 28
-36 54 l-28 50 -174 -100 c-95 -55 -175 -98 -178 -95 -3 3 -19 30 -36 60 l-31
54 -170 -99 c-94 -55 -173 -100 -177 -100 -10 0 -68 91 -68 107 0 6 25 25 55
42 30 17 55 33 55 36 0 3 -13 27 -30 53 -16 27 -30 52 -30 55 0 3 25 19 55 36
62 35 61 29 8 113 l-23 38 103 59 c56 33 109 64 116 69 12 7 10 18 -17 64 -35
62 -37 58 41 102 33 19 45 31 39 39 -5 7 -21 33 -36 59 l-27 48 56 31 c30 17
55 33 55 36 0 3 -14 29 -30 59 l-31 53 103 60 c57 33 109 64 117 69 12 7 9 17
-17 60 -18 29 -32 56 -32 61 0 5 25 24 55 41 30 17 55 34 55 37 0 3 -13 28
-30 55 -16 26 -30 50 -30 53 0 3 25 19 55 36 30 17 55 33 55 35 0 1 -13 26
-30 54 -16 28 -30 55 -30 60 0 5 25 23 55 40 30 17 55 33 55 35 0 2 -29 54
-65 115 -36 61 -65 113 -65 115 0 2 25 18 55 35 30 17 55 33 55 36 0 2 -13 26
-30 52 -16 27 -30 52 -30 55 0 3 25 20 55 37 30 17 55 35 55 39 0 5 -45 85
-99 179 l-99 172 54 31 c30 17 54 34 54 39 0 5 -13 32 -30 59 l-29 51 47 27
c66 37 73 44 64 57 -5 6 -21 32 -35 58 l-27 46 138 80 c76 44 154 90 175 102
l37 22 17 -32 c10 -17 26 -45 35 -61 l18 -29 37 23 c84 53 78 53 113 -8 17
-30 34 -55 37 -55 3 0 30 14 60 31 l54 31 -22 36 c-12 21 -26 41 -31 47 -17
20 -6 36 47 66 30 17 55 33 55 36 0 2 -29 54 -65 114 -36 61 -65 113 -65 115
0 2 25 18 55 35 30 17 55 32 55 34 0 2 -29 54 -65 116 -36 61 -65 113 -65 115
0 2 25 18 55 35 30 17 55 36 55 41 0 6 -14 33 -31 60 -16 28 -27 53 -24 57 15
14 91 60 101 60 6 1 24 -24 40 -54z m-5702 -936 c4 -4 -6 -32 -23 -63 l-32
-55 53 -30 c29 -17 57 -32 61 -34 7 -2 -101 -199 -120 -218 -5 -5 -32 5 -61
22 l-53 30 31 53 c16 29 30 56 30 59 0 3 -25 20 -55 37 -53 30 -55 33 -42 54
7 11 23 37 35 58 l23 36 -58 33 c-32 18 -60 34 -62 35 -2 2 11 28 28 58 l32
55 102 -61 c56 -34 106 -64 111 -69z m4480 77 c14 -25 26 -49 26 -54 0 -5 -22
-21 -50 -36 -27 -15 -52 -31 -55 -37 -4 -5 7 -32 24 -59 17 -28 31 -54 31 -59
0 -4 -17 -16 -37 -25 -77 -35 -78 -38 -44 -94 17 -27 31 -53 31 -58 0 -9 -87
-59 -102 -59 -8 0 -128 202 -128 214 0 4 25 20 55 36 30 17 55 34 55 39 0 5
-14 31 -31 59 -24 39 -28 52 -17 58 7 4 54 33 103 63 50 30 95 55 102 55 6 1
23 -19 37 -43z m-4791 -105 c-15 -25 -31 -52 -37 -59 -11 -15 -9 -17 66 -58
l47 -26 -23 -37 c-51 -81 -52 -76 9 -110 30 -17 55 -34 55 -37 0 -4 -47 -90
-56 -103 -2 -2 -29 11 -60 29 -62 35 -58 36 -94 -32 -11 -20 -23 -39 -28 -42
-4 -2 -31 9 -60 25 l-51 30 29 53 c17 29 30 55 30 59 0 3 -25 20 -55 37 l-55
32 30 53 c16 29 30 57 30 63 0 5 -25 24 -55 41 l-55 31 25 49 c13 27 28 52 33
55 4 2 32 -11 62 -29 30 -18 57 -32 61 -29 4 2 21 29 38 59 l31 54 54 -31 55
-32 -26 -45z m4975 49 c37 -67 30 -66 115 -13 l37 23 30 -47 c17 -26 30 -52
30 -57 0 -6 -25 -24 -55 -41 -30 -16 -55 -33 -55 -37 0 -4 14 -30 30 -58 17
-28 30 -54 30 -59 0 -4 -17 -16 -37 -25 -77 -35 -78 -37 -43 -95 16 -29 30
-54 30 -56 0 -4 -98 -65 -104 -65 -2 0 -18 25 -35 55 -17 30 -33 55 -36 55 -3
0 -28 -14 -56 -31 -28 -18 -54 -28 -58 -23 -4 5 -20 30 -34 56 l-27 46 55 31
c30 17 55 34 55 37 0 4 -13 29 -30 56 -16 26 -30 50 -30 52 0 3 25 19 55 36
30 17 55 34 55 37 0 3 -14 30 -31 60 -17 30 -29 56 -26 59 8 8 92 62 97 63 3
0 20 -26 38 -59z m-2468 -594 l0 -45 48 -3 47 -3 3 -99 3 -98 44 7 45 6 0 -50
0 -51 50 0 50 0 0 -51 0 -50 45 7 45 6 0 -51 0 -51 50 0 50 0 0 -95 0 -95 45
0 45 0 0 -335 0 -335 50 0 50 0 0 -95 0 -95 -44 0 -45 0 -3 48 -3 47 -47 3
-48 3 0 45 0 44 -50 0 -50 0 0 50 0 50 -45 0 -45 0 0 45 0 45 -44 0 -45 0 -3
48 -3 47 -47 3 -48 3 0 45 0 44 -50 0 -50 0 0 50 0 50 -50 0 -50 0 0 -50 0
-50 -51 0 -51 0 4 -45 3 -45 -47 0 -48 0 0 -50 0 -50 -50 0 -50 0 0 -45 0 -45
-45 0 -45 0 0 -50 0 -50 -50 0 -50 0 0 -48 0 -47 -45 3 -45 4 0 -51 0 -51 -45
0 -45 0 0 43 c0 23 -3 66 -6 95 l-7 52 51 0 52 0 2 333 3 332 45 1 45 1 1 94
2 94 46 3 46 3 0 50 0 51 48 -4 47 -3 0 48 0 47 48 0 47 0 0 50 0 50 48 -3 47
-2 3 98 3 97 44 0 45 0 0 45 0 45 50 0 50 0 0 -44z m-890 -535 c0 -5 -11 -12
-24 -15 -19 -5 -26 -14 -29 -39 -3 -24 -4 -21 -5 16 -2 46 -1 47 28 47 17 0
30 -4 30 -9z m1750 -1 c0 -5 -4 -10 -10 -10 -5 0 -10 5 -10 10 0 6 5 10 10 10
6 0 10 -4 10 -10z m-1885 -100 c-3 -5 -10 -10 -16 -10 -5 0 -9 5 -9 10 0 6 7
10 16 10 8 0 12 -4 9 -10z m1975 -7 c0 -12 -3 -14 -8 -6 -4 6 -23 13 -42 16
-33 4 -33 4 8 5 34 2 42 -1 42 -15z m-2892 -799 c2 -1 -11 -25 -28 -53 -17
-29 -28 -56 -25 -61 3 -4 26 -20 53 -36 26 -15 48 -28 50 -29 5 -5 -122 -225
-130 -225 -4 0 -31 14 -60 31 -29 17 -54 27 -55 23 -2 -5 -18 -32 -36 -60
l-32 -52 -110 64 c-63 36 -109 69 -107 76 2 7 17 34 32 60 l29 47 -27 19 c-15
11 -42 27 -60 36 l-32 17 19 37 c39 76 39 76 101 37 30 -19 58 -35 61 -35 3 0
18 27 34 60 16 33 31 60 34 60 3 0 31 -16 61 -35 l55 -34 33 59 33 59 52 -32
c29 -17 53 -32 55 -33z m3868 6 c15 -27 32 -50 37 -50 5 0 32 14 60 31 56 34
51 36 93 -43 13 -27 26 -48 29 -48 3 0 30 16 61 36 30 20 57 34 58 32 10 -14
56 -98 56 -102 0 -3 -25 -20 -55 -37 -30 -17 -55 -35 -55 -40 0 -5 14 -32 31
-60 18 -28 28 -54 23 -59 -5 -5 -55 -36 -112 -69 l-102 -60 -24 37 c-12 20
-28 47 -35 60 l-12 23 -55 -32 c-31 -17 -59 -28 -64 -23 -5 5 -36 56 -69 114
l-61 104 55 30 c30 17 55 36 55 41 0 6 -13 32 -29 58 l-30 46 47 30 c26 16 52
30 59 30 6 1 24 -21 39 -49z m-1549 -832 c-3 -8 -6 -5 -6 6 -1 11 2 17 5 13 3
-3 4 -12 1 -19z m-17 -54 l0 -44 458 -2 457 -3 0 -40 0 -40 135 -5 135 -5 3
-42 3 -43 92 0 92 0 -4 -51 -3 -51 46 3 46 4 0 -42 0 -43 45 0 45 0 0 -95 0
-95 45 0 45 0 0 -134 0 -135 48 -3 47 -3 -4 -132 -4 -133 47 0 46 0 0 -185 0
-185 45 0 45 0 0 -404 0 -405 -42 -3 -43 -3 -3 -317 -2 -318 -45 0 -46 0 3
-138 3 -137 40 0 40 0 3 -137 3 -138 44 0 45 0 0 -135 0 -135 -45 0 -45 0 0
-89 0 -90 -42 -3 c-43 -3 -43 -3 -46 -45 l-3 -43 -135 0 -134 0 0 -95 0 -95
-50 0 -50 0 0 -180 0 -180 -45 0 -45 0 0 -134 0 -135 -42 -3 c-43 -3 -43 -3
-46 -45 -3 -43 -3 -43 -43 -43 l-39 0 0 315 0 315 -50 0 -50 0 0 -360 0 -360
-45 0 -45 0 0 -50 0 -50 -90 0 -90 0 0 320 0 320 -45 0 -45 0 -2 -363 -3 -362
-92 -3 -93 -3 0 -38 c0 -38 -1 -39 -40 -43 l-40 -4 0 319 0 318 -47 -3 -48 -3
-3 -358 -2 -357 -90 0 -90 0 0 -51 0 -50 -42 3 -43 3 -3 47 -3 48 -45 0 -44 0
0 270 0 270 -45 0 -45 0 0 -320 0 -320 -90 0 -90 0 0 365 0 365 -45 0 -45 0 0
-365 0 -365 -90 0 -90 0 -2 318 -3 317 -45 0 c-33 0 -45 -4 -46 -15 -1 -8 -2
-151 -2 -318 l-2 -303 -87 3 -88 3 -3 48 -3 47 -90 0 -89 0 0 360 0 360 -45 0
-45 0 0 -315 0 -315 -44 0 -45 0 -3 43 c-3 42 -3 42 -43 43 -40 0 -40 1 -43
42 l-3 41 -47 3 -47 3 -3 363 -2 362 -45 0 -45 0 0 -365 0 -365 -90 0 -90 0 0
50 0 50 -45 0 -45 0 -2 272 -3 271 -40 0 -40 0 -3 -226 -2 -227 -45 0 -44 0
-3 43 c-3 42 -3 42 -45 45 l-43 3 0 135 0 134 -45 0 -45 0 0 180 0 180 -45 0
-45 0 0 95 0 95 -137 0 -138 0 0 42 0 43 -47 3 -48 3 0 90 0 89 -45 0 -45 0 0
135 0 135 45 0 45 0 0 139 0 139 48 -1 47 -2 0 135 0 135 -47 3 -48 3 -2 317
-3 317 -42 3 -43 3 0 405 0 404 45 0 45 0 0 185 0 185 45 0 44 0 3 133 3 132
43 3 42 3 0 137 0 137 45 -3 45 -4 0 99 0 98 44 -3 45 -4 3 44 3 43 43 -3 42
-4 0 51 0 51 90 0 90 0 0 48 0 47 141 -3 140 -3 -3 38 c-3 38 -4 38 -53 44
-27 3 179 7 459 7 l508 2 -4 45 -3 46 412 -2 413 -1 0 -44z"/>
<path d="M3470 3845 l0 -45 -90 0 -90 0 0 -45 0 -45 -50 0 -50 0 0 -45 0 -45
-45 0 -45 0 0 -95 0 -95 -45 0 -45 0 0 -270 0 -270 45 0 45 0 2 -272 3 -273
93 -3 92 -3 0 -44 0 -45 45 0 45 0 0 -45 0 -45 180 0 180 0 0 45 0 45 275 0
275 0 0 45 0 44 88 3 87 3 3 88 3 87 44 0 45 0 0 50 0 50 45 0 44 0 3 88 3 87
43 3 42 3 0 90 0 89 50 0 50 0 0 225 0 225 -50 0 -50 0 0 95 0 95 -45 0 -45 0
0 45 0 45 -89 0 -90 0 -3 43 -3 42 -87 3 -88 3 0 44 0 45 -410 0 -410 0 0 -45z"/>
<path d="M6010 3845 l0 -44 -87 -3 -88 -3 0 -43 0 -42 -92 0 -93 0 0 -45 0
-45 -45 0 -45 0 0 -95 0 -95 -45 0 -45 0 0 -225 0 -225 45 0 45 0 0 -90 0 -90
45 0 45 0 0 -89 0 -90 47 -3 47 -3 0 -45 1 -45 42 -3 42 -3 3 -87 3 -87 43 -3
42 -3 0 -45 0 -44 320 0 320 0 0 -45 0 -45 185 0 185 0 0 45 0 45 45 0 45 0 0
45 0 45 90 0 90 0 0 274 0 275 48 3 47 3 3 268 2 267 -50 0 -50 0 0 95 0 95
-45 0 -45 0 0 45 0 45 -45 0 -45 0 0 45 0 45 -90 0 -90 0 0 45 0 45 -415 0
-415 0 0 -45z"/>
<path d="M5110 2665 l0 -45 -50 0 -50 0 0 -89 0 -90 -42 -3 c-43 -3 -43 -3
-46 -45 -3 -42 -3 -42 -45 -45 l-42 -3 -3 -137 -3 -138 -44 0 -45 0 0 -135 0
-135 45 0 45 0 0 -45 0 -45 50 0 50 0 0 90 0 90 46 0 46 0 -4 45 -3 45 47 0
48 0 0 90 0 90 45 0 45 0 0 -90 0 -90 45 0 45 0 0 -44 0 -45 43 -3 42 -3 3
-87 3 -88 44 0 45 0 0 45 0 45 45 0 45 0 0 134 0 135 -42 3 -43 3 -3 138 -3
137 -44 0 -44 0 -3 43 c-3 42 -3 42 -45 45 l-43 3 0 90 0 89 -45 0 -45 0 0 45
0 45 -45 0 -45 0 0 -45z"/>
<path d="M3010 2115 l0 -45 45 0 45 0 0 -90 0 -90 140 0 140 0 0 -44 0 -45 43
-3 c42 -3 42 -3 43 -43 l0 -40 47 -3 47 -3 0 45 0 46 90 0 90 0 0 45 0 45 95
0 95 0 0 45 0 45 -95 0 -95 0 0 -45 0 -44 -92 -3 -93 -3 -3 -42 c-3 -43 -3
-43 -43 -43 l-39 0 0 45 0 45 -45 0 -45 0 0 45 0 44 -92 3 -93 3 -3 43 -3 42
-45 0 -44 0 0 45 0 45 -45 0 -45 0 0 -45z"/>
<path d="M4290 2115 l0 -45 -95 0 -95 0 0 -45 0 -45 95 0 95 0 0 45 0 45 45 0
45 0 0 45 0 45 -45 0 -45 0 0 -45z"/>
<path d="M5920 2115 l0 -45 45 0 45 0 0 -45 0 -45 95 0 95 0 0 45 0 45 -90 0
-90 0 0 45 0 45 -50 0 -50 0 0 -45z"/>
<path d="M7200 2115 l0 -45 -45 0 -45 0 0 -45 0 -45 -95 0 -95 0 0 -44 0 -45
-42 -3 c-35 -2 -43 -7 -44 -23 -3 -66 -2 -65 -44 -65 l-40 0 0 45 0 45 -95 0
-95 0 0 45 0 45 -90 0 -90 0 0 -45 0 -45 90 0 90 0 0 -45 0 -44 93 -3 92 -3 1
-40 0 -40 47 -3 47 -3 0 45 0 46 45 0 45 0 0 45 0 45 135 0 135 0 0 90 0 90
50 0 50 0 0 45 0 45 -50 0 -50 0 0 -45z"/>
<path d="M3924 1606 c-3 -8 -4 -29 -2 -48 l3 -33 88 -3 87 -3 0 51 0 50 -85 0
c-64 0 -87 -4 -91 -14z"/>
<path d="M6200 1570 l0 -50 90 0 90 0 0 50 0 50 -90 0 -90 0 0 -50z"/>
<path d="M3650 1486 l0 -45 -47 -3 -48 -3 0 -45 0 -45 47 -3 47 -3 3 48 3 48
43 3 42 3 0 45 0 44 -45 0 -45 0 0 -44z"/>
<path d="M4469 1528 c0 -2 -1 -22 -2 -46 l-2 -42 48 0 47 0 0 45 0 45 -45 0
c-25 0 -45 -1 -46 -2z"/>
<path d="M5747 1524 c-4 -4 -7 -25 -7 -46 0 -38 0 -38 40 -38 22 0 43 0 48 0
4 0 7 19 7 43 0 42 0 42 -40 45 -23 2 -44 0 -48 -4z"/>
<path d="M6560 1486 l0 -45 48 -3 47 -3 3 -47 3 -48 45 0 44 0 0 50 0 50 -45
0 -45 0 0 45 0 45 -50 0 -50 0 0 -44z"/>
<path d="M4650 1390 l0 -50 96 0 95 0 -3 48 -3 47 -92 3 -93 3 0 -51z"/>
<path d="M5470 1390 l0 -50 90 0 90 0 0 50 0 50 -90 0 -90 0 0 -50z"/>
</g>
</svg>
